<svg xmlns="http://www.w3.org/2000/svg" xmlns:xlink="http://www.w3.org/1999/xlink" width="128" height="128" class="icon" p-id="8238" t="1645768992157" version="1.1" viewBox="0 0 1024 1024"><defs><style type="text/css"/></defs><path fill="#F3F3F3" d="M256.000562 494.934162h477.865951l119.465737 290.133363V1024h-716.798425V785.067525z" p-id="8239"/><path fill="#ECECEC" d="M256.000562 494.934162h477.865951V716.800675H256.000562z" p-id="8240"/><path fill="#FBFBFB" d="M136.533825 1024V785.067525H409.600225a85.332813 85.332813 0 0 0 170.666625 0h273.0654V1024h-716.798425z" p-id="8241"/><path fill="#D5D5D5" d="M1006.931913 494.934162h-17.065963V512.001125a17.066962 17.066962 0 0 1-34.133925 0v-17.066963h-17.065962a17.066962 17.066962 0 0 1 0-34.132925h17.065962v-17.066962a17.066962 17.066962 0 0 1 34.133925 0V460.801237h17.065963a17.066962 17.066962 0 0 1 0 34.132925z m-204.79955-255.999437l153.599662-170.665625-51.199887 221.865512z m-136.5327-51.199888L955.732025 68.2691 767.999438 238.934725z m5.119988 217.941522a7.611983 7.611983 0 0 1 0.256 10.409977c-6.826985 7.338984-14.011969 14.335969-21.435953 21.162953a7.048985 7.048985 0 0 1-9.914978-0.682998 7.867983 7.867983 0 0 1 0.391999-10.751977c7.116984-6.313986 13.977969-13.140971 20.581954-20.137955a6.979985 6.979985 0 0 1 10.120978 0z m-68.761849 66.217854a7.201984 7.201984 0 0 1-7.406983 0 7.628983 7.628983 0 0 1-3.412993-6.825985 7.389984 7.389984 0 0 1 4.044991-6.314986 220.159516 220.159516 0 0 0 23.756948-15.529966 7.269984 7.269984 0 0 1 9.846978 2.046996 7.662983 7.662983 0 0 1-1.415997 10.239977 219.749517 219.749517 0 0 1-25.446944 16.383964z m-30.053934-27.30594a7.372984 7.372984 0 0 1-7.952982-6.655985 49.492891 49.492891 0 0 0-8.072982-24.746946 7.645983 7.645983 0 0 1 1.809996-10.409977 7.065984 7.065984 0 0 1 10.085977 1.876996 63.81186 63.81186 0 0 1 10.631977 32.255929 7.423984 7.423984 0 0 1-6.535986 7.679983z m-35.839921-48.810893a79.069826 79.069826 0 0 0-25.326944-8.532981 7.082984 7.082984 0 0 1-5.733988-4.60799 7.764983 7.764983 0 0 1 1.108998-7.509983 7.509983 7.509983 0 0 1 6.826985-2.729994 97.620786 97.620786 0 0 1 29.849934 10.068978 7.491984 7.491984 0 0 1 4.145991 6.314986 7.611983 7.611983 0 0 1-3.412992 6.825985 6.826985 6.826985 0 0 1-7.491984 0.170999z m-16.554963 85.844812a7.133984 7.133984 0 0 1-8.907981 5.119988 94.207793 94.207793 0 0 1-28.279938-13.65297 7.713983 7.713983 0 0 1-1.706996-10.239977 7.048985 7.048985 0 0 1 9.779978-2.218995 85.691812 85.691812 0 0 0 24.182947 11.775974 7.440984 7.440984 0 0 1 4.89799 9.21598z m-36.214921-94.207793a44.049903 44.049903 0 0 0-22.73295 10.410977 7.542983 7.542983 0 0 1-7.030985 1.706996 6.433986 6.433986 0 0 1-3.208992-2.047995 7.662983 7.662983 0 0 1 0.272999-10.581977 58.145872 58.145872 0 0 1 30.173934-14.335969 9.19898 9.19898 0 0 1 3.737991 0.342 7.747983 7.747983 0 0 1 4.334991 9.727978 7.286984 7.286984 0 0 1-5.580988 4.77799z m-82.226819-302.079337a42.666906 42.666906 0 1 1 42.665906-42.665906 42.666906 42.666906 0 0 1-42.665906 42.665906z m0-68.26585a25.599944 25.599944 0 1 0 25.599943 25.599944 25.599944 25.599944 0 0 0-25.599943-25.599944z m57.309874 434.175046a77.22683 77.22683 0 0 1-16.605964-28.501937 7.628983 7.628983 0 0 1 1.705997-7.337984 6.706985 6.706985 0 0 1 6.945984-2.047995 7.065984 7.065984 0 0 1 5.222989 5.119988 63.249861 63.249861 0 0 0 13.53397 22.697951 7.679983 7.679983 0 0 1-0.597999 10.581976 6.962985 6.962985 0 0 1-10.204977-0.511999z m222.85551-57.685873a7.764983 7.764983 0 0 1-1.023998-10.409977q9.21598-11.263975 17.799961-23.039949a7.030985 7.030985 0 0 1 9.984978-1.365997 7.867983 7.867983 0 0 1 1.586997 10.410977c-5.887987 8.020982-11.946974 16.042965-18.32996 23.722948a7.013985 7.013985 0 0 1-10.017978 0.681998z m39.252914-46.420898a7.167984 7.167984 0 0 1-6.159987-4.26699 7.764983 7.764983 0 0 1 0.681999-7.679984q7.952983-12.287973 15.359966-25.087944a7.133984 7.133984 0 0 1 9.932978-2.559995 7.662983 7.662983 0 0 1 2.491995 10.239978c-5.017989 8.703981-10.239978 17.407962-15.701966 25.770943a7.065984 7.065984 0 0 1-6.604985 3.583992z m26.640941-52.052885a7.730983 7.730983 0 0 1-2.934993-10.239978c2.798994-5.290988 5.529988-10.751976 8.174982-16.213964a7.030985 7.030985 0 0 1 9.14798-3.241993 7.696983 7.696983 0 0 1 3.805991 9.897978c-2.713994 5.631988-5.512988 11.263975-8.379981 16.725963a7.235984 7.235984 0 0 1-9.813979 3.071994z m72.072842-22.015952l-34.132925 51.199887V256.001687zM551.013914 492.033169a0.579999 0.579999 0 0 1 0.188-0.340999l0.955998-2.389995c-3.412993 0.511999-6.826985 1.023998-10.239978 1.194997a7.525983 7.525983 0 0 1-0.733998-15.018967h0.102a113.032752 113.032752 0 0 0 16.912962-2.388995c0.853998-2.729994 1.706996-5.460988 2.457995-8.191982a7.304984 7.304984 0 0 1 8.95998-5.289988 7.645983 7.645983 0 0 1 5.119989 8.873981c-0.238999 1.023998-0.596999 1.876996-0.852998 2.900993 0.442999 0.341999 0.972998 0.341999 1.364997 0.682999a7.884983 7.884983 0 0 1 0.459999 10.751976 6.826985 6.826985 0 0 1-3.411992 2.047996c-0.955998 0.340999-1.945996 0.511999-2.918994 0.852998-1.159997 3.071993-2.456995 6.143987-3.805992 9.215979h168.294631l118.595739 290.133363h0.869998V1024h-716.798425V785.067525h0.869998L256.000562 494.934162h294.945352a7.219984 7.219984 0 0 1 0.068-2.900993zM733.866513 537.601069v179.199606l27.903938 68.26685h71.081844zM153.600787 967.339124v39.593914h682.665501v-204.799551h-255.999438a85.332813 85.332813 0 0 1-170.666625 0h-255.999438V967.340124zM256.000562 537.601069l-98.986782 247.466456h71.082844L256.000562 716.800675V537.601069z m-10.239977 247.466456h180.906602v17.065962a68.26685 68.26685 0 0 0 136.532701 0v-17.065962h180.906602L716.79955 716.800675H273.067525z m27.30694-85.333813H716.79955V512.001125H273.067525v187.732587zM529.629961 549.718042a7.099984 7.099984 0 0 1-10.239977 0.511999 7.679983 7.679983 0 0 1-0.409999-10.580977 223.282509 223.282509 0 0 0 17.697961-22.69895 7.030985 7.030985 0 0 1 9.864978-1.364997 7.628983 7.628983 0 0 1 1.945996 10.069978 223.09451 223.09451 0 0 1-18.859959 24.062947z m-44.014903 41.13091a7.082984 7.082984 0 0 1-9.898978-1.535997 7.833983 7.833983 0 0 1 1.109997-10.409977 339.749253 339.749253 0 0 0 21.929952-18.773959 7.116984 7.116984 0 0 1 10.239978 0.682999 7.696983 7.696983 0 0 1-0.562999 10.580976q-11.041976 10.239978-22.81795 19.455958z m-48.827893 34.132925a6.979985 6.979985 0 0 1-9.761978-2.729994 7.764983 7.764983 0 0 1 2.303995-10.239978q12.270973-7.423984 24.165947-15.871965a7.184984 7.184984 0 0 1 10.052977 2.047996 7.849983 7.849983 0 0 1-1.979995 10.580976c-8.123982 5.631988-16.383964 10.922976-24.779946 16.212965z m-51.369887 29.013936a7.030985 7.030985 0 0 1-9.574979-3.242993 7.799983 7.799983 0 0 1 3.089993-10.239977c8.532981-4.266991 17.065963-8.87498 25.462944-13.65297a7.082984 7.082984 0 0 1 9.659979 3.071993A7.645983 7.645983 0 0 1 411.340221 640.000844c-8.567981 4.778989-17.202962 9.556979-25.923943 13.994969zM25.601069 256.001687a25.599944 25.599944 0 1 1 25.599943-25.599943A25.599944 25.599944 0 0 1 25.601069 256.001687z" p-id="8242"/></svg>