<svg xmlns="http://www.w3.org/2000/svg" xmlns:xlink="http://www.w3.org/1999/xlink" viewBox="0 0 1024 1024"><defs><style>.cls-1,.cls-2,.cls-37{fill:none;}.cls-2{stroke:#283380;stroke-width:0.52px;}.cls-3{isolation:isolate;}.cls-4{fill:url(#未命名的渐变_94);}.cls-5{clip-path:url(#clip-path);}.cls-6{fill:#828ba8;opacity:0.65;}.cls-7{fill:#ced9ea;}.cls-19,.cls-22,.cls-7{opacity:0.2;}.cls-16,.cls-24,.cls-26,.cls-8{fill:#fff;}.cls-8{opacity:0.35;}.cls-9{fill:#dadeea;}.cls-10{fill:#717a96;}.cls-11,.cls-15{opacity:0.19;}.cls-12,.cls-13,.cls-14,.cls-15{fill:#7985a5;}.cls-13{opacity:0.43;}.cls-14{opacity:0.33;}.cls-16{opacity:0.22;mix-blend-mode:hard-light;}.cls-17{fill:#bcc2d3;}.cls-18{fill:#f6f6f6;}.cls-20{fill:#959fb5;}.cls-21{fill:#cad0dd;}.cls-22{fill:#5a6ea0;}.cls-23{fill:#949cb2;}.cls-24,.cls-25{opacity:0.15;}.cls-27{fill:#d8d1cb;}.cls-28{fill:#37354c;}.cls-29{clip-path:url(#clip-path-2);}.cls-30{mix-blend-mode:screen;fill:url(#Grid_.25_inch_Lines_20);}.cls-31{opacity:0.5;}.cls-32{clip-path:url(#clip-path-3);}.cls-33{fill:#526ef7;opacity:0.39;}.cls-33,.cls-34{mix-blend-mode:multiply;}.cls-34{fill:#c2d9ff;}.cls-35{fill:#302c48;}.cls-36{fill:#e0d9d1;}.cls-37{opacity:0.74;}.cls-38{fill:url(#未命名的渐变_87);}.cls-39{fill:#7b7b9b;}.cls-40{fill:url(#未命名的渐变_94-2);}.cls-41{fill:#6a789b;}.cls-42{fill:#393749;}.cls-43{fill:#fafaff;}.cls-44{fill:#d6cdc4;}</style><linearGradient id="未命名的渐变_94" x1="256.46" y1="955.61" x2="767.54" y2="70.39" gradientUnits="userSpaceOnUse"><stop offset="0" stop-color="#5a5c7a"/><stop offset="1" stop-color="#6b6d8b"/></linearGradient><clipPath id="clip-path"><circle class="cls-1" cx="512" cy="513" r="511"/></clipPath><clipPath id="clip-path-2"><path id="_剪贴路径_" data-name="&lt;剪贴路径&gt;" class="cls-1" d="M670,670.91s-15,17.94-77.73,26.91c0,0-77.74-3-86.7,53.81s-41.86,56.81-32.89,86.7c0,0-23.92,23.92-26.91,41.86s0,12,0,12S496.59,922,496.59,949c0,0,17.93-6,17.93-12s17.94,0,20.93-6c0,0-9,62.78,6,80.72s-3,44.85,15,53.82c0,0,74.74-9,89.69,0,12.24,7.34,50.55,30.73,73.87,16,5.94-3.76,10-11.21,12.83-16a78.78,78.78,0,0,0,10-30.72c2.66-19.51,7.73-38.73,9.08-58.37,3-43.43,13.87-44.35,25.94-112.85,10.2-57.84,8-88.57,0-115.44-2.52-8.51-4.52-15.24-9.08-23.34C744.5,681.78,689,673.06,670,670.91Z"/></clipPath><pattern id="Grid_.25_inch_Lines_20" data-name="Grid .25 inch Lines 20" width="72" height="72" patternTransform="translate(-57.98 -2.74) scale(1.01)" patternUnits="userSpaceOnUse" viewBox="0 0 72 72"><rect class="cls-1" width="72" height="72"/><line class="cls-2" x1="51.49" y1="45.6" x2="51.49" y2="170.4"/><line class="cls-2" x1="20.51" y1="45.6" x2="20.51" y2="170.4"/><line class="cls-2" x1="45.6" y1="51.49" x2="170.4" y2="51.49"/><line class="cls-2" x1="45.6" y1="20.51" x2="170.4" y2="20.51"/><line class="cls-2" x1="-26.4" y1="51.49" x2="98.4" y2="51.49"/><line class="cls-2" x1="-26.4" y1="20.51" x2="98.4" y2="20.51"/><line class="cls-2" x1="51.49" y1="-26.4" x2="51.49" y2="98.4"/><line class="cls-2" x1="20.51" y1="-26.4" x2="20.51" y2="98.4"/><line class="cls-2" x1="-98.4" y1="51.49" x2="26.4" y2="51.49"/><line class="cls-2" x1="-98.4" y1="20.51" x2="26.4" y2="20.51"/><line class="cls-2" x1="51.49" y1="-98.4" x2="51.49" y2="26.4"/><line class="cls-2" x1="20.51" y1="-98.4" x2="20.51" y2="26.4"/></pattern><clipPath id="clip-path-3"><path id="_剪贴路径_2" data-name="&lt;剪贴路径&gt;" class="cls-1" d="M676.39,670.91s-14.95,17.94-77.73,26.91c0,0-77.73-3-86.7,53.81s-41.86,56.81-32.89,86.7c0,0-23.92,23.92-26.91,41.86s0,12,0,12S503,922,503,949c0,0,17.94-6,17.94-12s17.93,0,20.92-6c0,0-9,62.78,6,80.72s-3,44.85,14.95,53.82c0,0,74.74-9,89.69,0,12.24,7.34,50.55,30.73,73.87,16,5.94-3.76,10-11.21,12.83-16a78.6,78.6,0,0,0,10-30.72c2.66-19.51,7.73-38.73,9.08-58.37,3-43.43,13.87-44.35,25.94-112.85,10.2-57.84,8-88.57,0-115.44-2.52-8.51-4.52-15.24-9.07-23.34C750.9,681.78,695.39,673.06,676.39,670.91Z"/></clipPath><linearGradient id="未命名的渐变_87" x1="579.67" y1="674.03" x2="675.86" y2="674.03" gradientUnits="userSpaceOnUse"><stop offset="0" stop-color="#302c48"/><stop offset="1" stop-color="#535e85"/></linearGradient><linearGradient id="未命名的渐变_94-2" x1="772.4" y1="621.54" x2="790.04" y2="621.54" xlink:href="#未命名的渐变_94"/></defs><title>画板 1</title><g class="cls-3"><g id="图层_1" data-name="图层 1"><circle class="cls-4" cx="512" cy="513" r="511"/><g class="cls-5"><path class="cls-6" d="M732.85,1041.44l-1179.29-.81c-18.23-1.33-97.47-9.12-159.23-75.94-13.26-14.34-65.51-70.88-62.26-145.27,4.6-105.38,115.31-126.11,114.15-228.29-.62-54.18-32-68.52-26-134.89,1.29-14.14,6.05-66.45,41.51-109,92.13-110.45,302.8-48.38,352.81-10.38l.08.07c29.89,22.73,57.09,42,81,70.92C65,613.06,161.75,317,307.49,243.51c9.67-4.88,163.89-66.66,291.58,2.42,17.89,9.67,48.7,26.34,76.78,59.84,55.46,66.17,40.24,126.37,98.59,171.23,43.25,33.25,87,36.73,124.07,84.15,56.75,72.58,69.82,166.15,51.35,255.15C937,878.22,797.54,1041.44,732.85,1041.44Z"/><path class="cls-7" d="M815.11,1044.9c-98.53,51.4-216.3,31-321.82,20.43-161-16.1-323-8.79-484.41-4.37-157.17,4.3-314.13-8.93-470.29-28.72-18.13-2.29-96.84-14.31-154.94-84.32-12.48-15-61.64-74.28-54.42-148.39,10.22-105,121.88-119.78,126.17-221.87,2.27-54.15-28.28-70.13-18.71-136.09,2-14.05,9.59-66,47.27-106.59,97.9-105.37,304.95-32.14,352.86,8.48l.08.06c28.63,24.3,54.77,45,77.09,75.15C72.15,632.59,184.55,342.13,334,276.51c9.92-4.35,167.22-57.81,291,18,17.34,10.62,47.22,28.91,73.48,63.86,51.85,69,33.43,128.33,89.3,176.24,41.42,35.51,84.92,41.32,119.41,90.66,51.71,74,64.12,175.19,37.64,257.52C936.16,909.85,903.07,999,815.11,1044.9Z"/><path class="cls-8" d="M566,590.41,369.89,402.8l7.18,92.2S448.47,622.53,566,590.41Z"/><circle class="cls-1" cx="578.82" cy="402.21" r="175.26"/><rect class="cls-9" x="122.51" y="388.48" width="429.18" height="302.27" transform="translate(674.2 1079.22) rotate(-180)"/><rect class="cls-10" x="122.51" y="388.48" width="429.18" height="44.4"/><g class="cls-11"><rect class="cls-12" x="405.71" y="457.49" width="117.75" height="4.6"/><rect class="cls-12" x="405.01" y="472.75" width="117.75" height="4.6" transform="translate(927.77 950.1) rotate(-180)"/><rect class="cls-12" x="405.71" y="486.12" width="117.75" height="4.6"/><rect class="cls-12" x="405" y="498.72" width="117.75" height="4.6" transform="translate(927.74 1002.05) rotate(-180)"/><rect class="cls-12" x="405" y="518.03" width="118.47" height="44.1"/></g><rect class="cls-13" x="159.41" y="466.12" width="53.19" height="97.83"/><rect class="cls-14" x="236.34" y="482.27" width="52.24" height="81.68"/><rect class="cls-15" x="309.48" y="456.62" width="50.34" height="106.37"/><polygon class="cls-1" points="147.34 379.96 147.34 424.36 147.34 690.75 576.52 690.75 576.52 424.36 576.52 379.96 147.34 379.96"/><circle class="cls-16" cx="747.08" cy="972.65" r="71.74" transform="translate(-375.57 1466.45) rotate(-76.22)"/><rect class="cls-9" x="-303.42" y="547.34" width="1040.16" height="530.01" transform="translate(433.33 1624.68) rotate(180)"/><rect class="cls-10" x="-303.42" y="547.34" width="1040.16" height="63.45"/><rect class="cls-17" x="-303.42" y="610.79" width="1040.16" height="134.37"/><circle class="cls-18" cx="669.7" cy="580.93" r="15.98"/><circle class="cls-18" cx="623.76" cy="580.93" r="15.98"/><circle class="cls-18" cx="577.81" cy="580.93" r="15.98"/><g class="cls-19"><rect class="cls-20" x="-208.81" y="811.87" width="342.44" height="6.96"/><rect class="cls-20" x="-210.84" y="834.95" width="342.44" height="6.96" transform="translate(-79.25 1676.87) rotate(180)"/><rect class="cls-20" x="-208.81" y="855.18" width="342.44" height="6.96"/><rect class="cls-20" x="-210.89" y="881.23" width="342.44" height="24.03" transform="translate(-79.35 1786.48) rotate(180)"/></g><rect class="cls-21" x="15.76" y="670.26" width="103.71" height="14" rx="2.61" ry="2.61" transform="translate(135.24 1354.51) rotate(-180)"/><rect class="cls-21" x="214.18" y="670.26" width="103.71" height="14" rx="2.61" ry="2.61"/><rect class="cls-21" x="412.6" y="670.26" width="103.71" height="14" rx="2.61" ry="2.61" transform="translate(928.91 1354.51) rotate(-180)"/><path class="cls-22" d="M580.85,724v-9H249V942.28H580.85Z"/><path class="cls-23" d="M568,705v-9H236.1V923.25H568Z"/><path class="cls-24" d="M371,724.52v-2.15H267.23v54.48H371Z"/><g class="cls-25"><rect class="cls-26" x="269.56" y="800.19" width="303.76" height="3.95"/><rect class="cls-26" x="267.75" y="813.27" width="303.76" height="3.95" transform="translate(839.26 1630.49) rotate(-180)"/><rect class="cls-26" x="269.56" y="824.73" width="303.76" height="3.95"/><rect class="cls-26" x="267.71" y="835.54" width="303.76" height="3.95" transform="translate(839.17 1675.02) rotate(-180)"/><rect class="cls-26" x="267.71" y="852.09" width="305.61" height="37.81"/></g><path class="cls-27" d="M263,851.5S403.52,986,466.31,974.07c0,0,44.84-29.89,41.85-56.8s-65.77-23.92-65.77-23.92-139.27-31.12-171.28-61.9c0,0,0-16.34-4.67-25.67s0-35,0-35h-2.33c-4.67,0-14,18.67-14,23.33s-14-4.66-14-4.66v-14s-14,4.67-16.33,11.67-18.67,28-14,32.67,16.33,37.34,23.33,35,32.67-4.67,32.67-4.67"/><path class="cls-27" d="M685.61,548.17l-80.84-57.74s-103.94,65.44-77,111.64c11.74,20.12,35.16,24.9,57.86,23.89,3.59,24.57,5.22,71.17-11.66,99.29,0,0,65.44,0,100.09-34.64,0,0-19.18-49.91-22.32-90.09Z"/><path id="_路径_" data-name="&lt;路径&gt;" class="cls-28" d="M676.39,672.12S661.44,690.06,598.66,699c0,0-77.73-3-86.7,53.81s-41.86,56.8-32.89,86.7c0,0-23.92,23.92-26.91,41.85s0,12,0,12S503,923.25,503,950.16c0,0,17.94-6,17.94-12s17.93,0,20.92-6c0,0-9,62.78,6,80.72s-3,44.84,14.95,53.81c0,0,74.74-9,89.69,0,12.24,7.35,50.55,30.73,73.87,16,5.94-3.76,10-11.21,12.83-16a78.64,78.64,0,0,0,10-30.73c2.66-19.51,7.73-38.72,9.08-58.36,3-43.44,13.87-44.35,25.94-112.85,10.2-57.85,8-88.57,0-115.44-2.52-8.52-4.52-15.25-9.07-23.35C750.9,683,695.39,674.27,676.39,672.12Z"/><g class="cls-19"><g class="cls-29"><rect class="cls-30" x="416.18" y="652.04" width="481.37" height="484.94"/></g></g><g class="cls-31"><g class="cls-32"><path class="cls-33" d="M512.7,957.61l26.23-26.23s26.23,0,26.23-30,30-45,30-56.2c0,0,15,26.22-3.74,41.21s3.74,45-7.5,52.46-41.22,56.21-26.23,71.2-22.48,30-22.48,30Z"/><path class="cls-34" d="M716,1069.85c-56.94,1.31-68.2-2.77-68.75-6.48-1.25-8.51,54.47-9.24,82.8-49.56,11.91-16.95-.27-44.52,22.48-82.43,11.24-18.74-11.24-45,7.49-60s37.48-52.45,45-86.18-26.23,228.57-26.23,228.57Z"/></g></g><path class="cls-35" d="M696.22,536c-8.29-4.9-14.07-17.79-13.66-27.81A29.69,29.69,0,0,0,680,494.24a7.26,7.26,0,0,0-1.47-2c-8.25-8.29-27.2,2.85-33.07-5.07-2.45-3.29,0-6.42-4-12.7-4.55-7.21-10.52-3.89-17.61-3.09a28.67,28.67,0,0,1,.22-7.61c.54-5.33.81-8,.67-8.69-1.18-6.17-13.45-11.55-23.69-10s-18.86,10.26-22.44,22a53.42,53.42,0,0,0-4,23.4c1,15.88,9.1,26.67,14.71,34.09A87.9,87.9,0,0,0,620,550a107.83,107.83,0,0,1-7.35,24.74c-1.43,3.18-4.93,10.42-2,14a6,6,0,0,0,.67.67,4.67,4.67,0,1,1,7.72,5.21c2.46-1.93,4.85-3.71,7.09-5.23a72.69,72.69,0,0,1,13.21,11.77c7.92,9,10.84,16.95,14.1,16.33,1.33-.26,3-2,4-8.7a139.09,139.09,0,0,0,30.09-19.38c11-9.33,21.37-18.35,23.4-32.1.39-2.67,1.7-11.51-3.34-16.71C704.13,537.07,701.3,539,696.22,536Z"/><path class="cls-36" d="M631.32,604.17c-11.17,2.51-21.68-1.92-23.47-9.91s5.81-16.48,17-19,21.69,1.93,23.48,9.91S642.49,601.67,631.32,604.17Z"/><path class="cls-37" d="M797.66,1040.63H-446.44c-18.23-1.33-97.47-9.12-159.23-75.94-13.26-14.34-65.51-70.88-62.26-145.27,4.6-105.38,115.31-126.11,114.15-228.29-.62-54.18-32-68.52-26-134.89,1.29-14.14,6.05-66.45,41.51-109,92.13-110.45,302.8-48.38,352.81-10.38l.08.07c29.89,22.73,57.09,42,81,70.92C65,613.06,161.75,317,307.49,243.51c9.67-4.88,163.89-66.66,291.58,2.42,17.89,9.67,48.7,26.34,76.78,59.84,55.46,66.17,40.24,126.37,98.59,171.23,43.25,33.25,87,36.73,124.07,84.15,56.75,72.58,71.64,166.54,51.35,255.15C939.18,862.91,862.35,1040.63,797.66,1040.63Z"/><path class="cls-38" d="M583.23,668.56q-1.79,16.05-3.56,32.09a153.58,153.58,0,0,0,96.19-27l-13.29-26.46q-20.39,6.48-42.79,12.48Q601,664.63,583.23,668.56Z"/><path class="cls-39" d="M816.18,374.87h-8.34v-8.34a1.34,1.34,0,0,0-1.35-1.34h-1.23a1.34,1.34,0,0,0-1.34,1.34v8.34h-8.34a1.35,1.35,0,0,0-1.35,1.35v1.23a1.35,1.35,0,0,0,1.35,1.34h8.34v8.34a1.35,1.35,0,0,0,1.34,1.35h1.23a1.35,1.35,0,0,0,1.35-1.35v-8.34h8.34a1.34,1.34,0,0,0,1.34-1.34v-1.23A1.34,1.34,0,0,0,816.18,374.87Z"/><path class="cls-39" d="M365.88,139.85h-8.34v-8.34a1.34,1.34,0,0,0-1.34-1.34H355a1.34,1.34,0,0,0-1.35,1.34v8.34h-8.34a1.34,1.34,0,0,0-1.34,1.35v1.23a1.34,1.34,0,0,0,1.34,1.34h8.34v8.34a1.35,1.35,0,0,0,1.35,1.35h1.23a1.35,1.35,0,0,0,1.34-1.35v-8.34h8.34a1.35,1.35,0,0,0,1.35-1.34V141.2A1.35,1.35,0,0,0,365.88,139.85Z"/><path class="cls-39" d="M989.47,442.22H978.42V431.17a1.78,1.78,0,0,0-1.78-1.78H975a1.79,1.79,0,0,0-1.79,1.78v11.05H962.17a1.78,1.78,0,0,0-1.78,1.78v1.63a1.79,1.79,0,0,0,1.78,1.79h11.05v11.05a1.79,1.79,0,0,0,1.79,1.78h1.63a1.78,1.78,0,0,0,1.78-1.78V447.42h11.05a1.79,1.79,0,0,0,1.78-1.79V444A1.78,1.78,0,0,0,989.47,442.22Z"/><path class="cls-39" d="M641.72,108.82h-11v-11A1.79,1.79,0,0,0,628.89,96h-1.63a1.79,1.79,0,0,0-1.78,1.79v11H614.43a1.79,1.79,0,0,0-1.79,1.78v1.63a1.78,1.78,0,0,0,1.79,1.78h11.05v11a1.79,1.79,0,0,0,1.78,1.79h1.63a1.79,1.79,0,0,0,1.79-1.79V114h11a1.78,1.78,0,0,0,1.79-1.78V110.6A1.79,1.79,0,0,0,641.72,108.82Z"/><path class="cls-40" d="M789,620.05h-6.31v-6.31a1,1,0,0,0-1-1h-.93a1,1,0,0,0-1,1v6.31h-6.32a1,1,0,0,0-1,1V622a1,1,0,0,0,1,1h6.32v6.32a1,1,0,0,0,1,1h.93a1,1,0,0,0,1-1V623H789a1,1,0,0,0,1-1v-.93A1,1,0,0,0,789,620.05Z"/><path class="cls-41" d="M194.49,997.57h6.32v-6.31a1,1,0,0,1,1-1h.93a1,1,0,0,1,1,1v6.31h6.31a1,1,0,0,1,1,1v.93a1,1,0,0,1-1,1h-6.31v6.32a1,1,0,0,1-1,1h-.93a1,1,0,0,1-1-1v-6.32h-6.32a1,1,0,0,1-1-1v-.93A1,1,0,0,1,194.49,997.57Z"/><path class="cls-42" d="M555.09,547l.56-1.21a4,4,0,0,1,7.28,3.36l-.56,1.21a4,4,0,1,1-7.28-3.36Z"/><path class="cls-42" d="M586.1,539.06s-6.78-13-14.56-13.52"/><path class="cls-43" d="M558.71,580.56c0,.72-.4,6.88-5.62,10.39-.77.51-4.92,3.29-9.91,1.7a11.55,11.55,0,0,1-7-6.91,12.34,12.34,0,0,1,1.24-10.52Z"/><path class="cls-36" d="M550.73,539.24c-1.36.14-22.73,3.28-22.17,6.28s8.35,8.94,8.35,8.94"/><path class="cls-44" d="M622.64,584.77s1.08-.54,2.64-1.18c5-2,14.72-5,10.33,5.19-5.76,13.37-21.62,7.35-21.62,7.35"/><polyline class="cls-44" points="584.57 624.52 609.31 621.54 586.57 653.63 585.63 622.74"/><rect class="cls-1" x="-796.7" y="111.42" width="1853.28" height="1048.32"/><circle class="cls-1" cx="511.35" cy="543.43" r="511"/></g></g></g></svg>